<svg id="Layer_1" data-name="Layer 1" xmlns="http://www.w3.org/2000/svg" viewBox="0 0 757.6 757.6"><defs><style>.cls-1{fill:none;stroke:#000;stroke-miterlimit:10;stroke-width:2.75px;}</style></defs><path class="cls-1" d="M727,378.69c0-186.78-30.34-296.76-30.34-296.76a33.26,33.26,0,0,0-21-21s-110-30.34-296.75-30.34h-.23C191.91,30.62,81.93,61,81.93,61a33.28,33.28,0,0,0-21,21s-30.34,110-30.34,296.76v.23C30.62,565.69,61,675.67,61,675.67a33.26,33.26,0,0,0,21,21S191.91,727,378.69,727h.23c186.77,0,296.75-30.34,296.75-30.34a33.25,33.25,0,0,0,21-21S727,565.69,727,378.92v-.23Z"/></svg>