<svg xmlns="http://www.w3.org/2000/svg" viewBox="0 0 1920.06 832.01"><defs><style>.cls-1{fill:#333;}.cls-2{fill:#1a1a1a;}</style></defs><g id="upper_front"><path class="cls-1" d="M167.15,6l86.66,110.07a14.65,14.65,0,0,0,11.4,6H1654.79a14.65,14.65,0,0,0,11.4-6L1752.85,6a14.58,14.58,0,0,1,11.39-6H155.76A14.58,14.58,0,0,1,167.15,6Z"/></g><g id="upper_rear"><path class="cls-2" d="M.06,190m0,0v26.44h159.2a16.18,16.18,0,0,1,11.4,4.69l86.66,86.21a16.16,16.16,0,0,0,11.4,4.69H1658.29a16.16,16.16,0,0,0,11.4-4.69l86.66-86.21a16.16,16.16,0,0,1,11.4-4.69h152.31V190Z"/></g><g id="lower_front"><path class="cls-1" d="M0,832V710H376.06a14.6,14.6,0,0,1,11.4,6L474.12,826a14.6,14.6,0,0,0,11.4,6Z"/><path class="cls-1" d="M1920,832V710H1543.94a14.6,14.6,0,0,0-11.4,6L1445.88,826a14.6,14.6,0,0,1-11.4,6Z"/></g><g id="lower_rear"><path class="cls-2" d="M564.33,621v-.33h791.34V621H1920V499H1540.43a16.14,16.14,0,0,0-11.39,4.69l-86.66,86.21a16.18,16.18,0,0,1-11.4,4.69H489a16.18,16.18,0,0,1-11.4-4.69L391,503.66A16.14,16.14,0,0,0,379.57,499H0V621Z"/></g></svg>