<svg id="Layer_1" data-name="Layer 1"
    xmlns="http://www.w3.org/2000/svg" viewBox="0 0 297.87 1073.02">
    <defs>
        <style>.cls-1{fill:#fff;}.cls-2,.cls-3,.cls-4,.cls-5{fill:none;stroke:#fff;}.cls-2,.cls-3,.cls-4{stroke-miterlimit:10;}.cls-3{stroke-width:0.5px;}.cls-4{stroke-width:0.75px;}.cls-5{stroke-linejoin:round;}</style>
    </defs>
    <path class="cls-1" d="M170,19.25h.23l.08,0,0,0h0c3.83.95,8.62,7.43,13.26,13.7l2.06,2.77c6,7.93,8.93,11.91,28.88,57.8,19.52,44.89,23.8,104.94,23.92,106.63v461a11.81,11.81,0,0,0,1.11,5.45c.29.6,1,1.69,1.87,3.07,1.25,1.95,2.8,4.38,3.63,6.07a9.66,9.66,0,0,1,1,4.29l-.58,68.12h-151l-.58-68.12a9.66,9.66,0,0,1,1-4.29c.83-1.69,2.38-4.12,3.62-6.07.89-1.38,1.59-2.47,1.88-3.07a11.81,11.81,0,0,0,1.11-5.45v-461c.12-1.7,4.4-61.73,23.92-106.63,20-45.89,22.93-49.87,28.88-57.8L156.36,33c4.64-6.27,9.43-12.75,13.22-13.69l.2-.06.21,0m0-1a1.82,1.82,0,0,0-.42,0l-.2.06c-4.77,1.18-10.32,9.43-15.88,16.84-6,8-9,12-29,58s-24,107-24,107v461a10.87,10.87,0,0,1-1,5c-.69,1.38-4.08,6.24-5.51,9.15a10.55,10.55,0,0,0-1.08,4.74l.59,69.11h153l.59-69.11a10.55,10.55,0,0,0-1.08-4.74c-1.43-2.91-4.82-7.77-5.51-9.15a10.87,10.87,0,0,1-1-5v-461s-4-61-24-107-23-50-29-58c-5.56-7.41-11.11-15.66-15.88-16.84l-.18-.06a1.94,1.94,0,0,0-.44,0Z" transform="translate(-21.07 -17.75)"/>
    <path class="cls-1" d="M170.06,662.19h1.82c3.62,0,6.75.07,8.27,2,3.33,4.23,3.52,7.12,3.9,12.89.13,1.94.27,4.15.56,6.81,1.07,9.72,5.93,55.2,6.89,64.21,0,0,0,0-.06.08h-21l-19.9,0a.08.08,0,0,1,0-.06c1-9,5.82-54.49,6.89-64.21.29-2.66.43-4.87.56-6.81.38-5.77.57-8.66,3.9-12.89,1.39-1.77,4.77-2,8.21-2m0-1c-3.63,0-7.31.24-9,2.39-4.68,5.94-3.51,9.51-4.68,20.21-1.06,9.77-6,56.19-6.88,64.22a1.06,1.06,0,0,0,1.05,1.18h40.88a1.06,1.06,0,0,0,1.05-1.18c-.85-8-5.82-54.45-6.88-64.22-1.17-10.7,0-14.27-4.68-20.21-1.86-2.37-5.39-2.34-9.35-2.38Z" transform="translate(-21.07 -17.75)"/>
    <path class="cls-1" d="M170.2,676.18h1.55c3.07,0,5.71.06,7,1.63,2.82,3.52,3,5.93,3.3,10.75.11,1.63.24,3.49.49,5.73.9,8.12,5,46.05,5.88,53.89H153.61c.86-7.84,5-45.77,5.88-53.89.25-2.24.38-4.1.49-5.73.32-4.82.48-7.23,3.3-10.75,1.15-1.44,4-1.64,6.92-1.64m0-1c-3.11,0-6.26.21-7.7,2-4,5-3,8-4,17-.91,8.22-5.16,47.25-5.89,54a.9.9,0,0,0,.9,1h35a.9.9,0,0,0,.9-1c-.73-6.76-5-45.79-5.89-54-1-9,0-12-4-17-1.59-2-4.62-2-8-2Z" transform="translate(-21.07 -17.75)"/>
    <line class="cls-2" x1="218.43" y1="271.45" x2="79.43" y2="271.45"/>
    <line class="cls-2" x1="176.05" y1="259.78" x2="79.43" y2="259.78"/>
    <line class="cls-2" x1="217.46" y1="259.78" x2="211.6" y2="259.78"/>
    <line class="cls-2" x1="79.43" y1="193.95" x2="218.43" y2="193.95"/>
    <line class="cls-2" x1="88.25" y1="123.95" x2="209.62" y2="123.95"/>
    <line class="cls-2" x1="139.43" y1="10.45" x2="158.43" y2="10.45"/>
    <path class="cls-2" d="M94,747.69l.17-5.72L70,749.69l-1,2-13.48,4.49L94,702.69v-5l-58.28,81H22s2,3,15.5,3,15.5-3,15.5-3H39.33l13.06-18.15Z" transform="translate(-21.07 -17.75)"/>
    <path class="cls-2" d="M246,747.69l-.17-5.72L270,749.69l1,2,13.48,4.49L246,702.69v-5l58.28,81H318s-2,3-15.5,3-15.5-3-15.5-3h13.67l-13.06-18.15Z" transform="translate(-21.07 -17.75)"/>
    <path class="cls-2" d="M169.17,697.69,170,760l-16.26-14.06-.35,2.59L170,764l-.33,14.66H156s2,3,15.5,3H171c13.5,0,15.5-3,15.5-3H172.83l-.06-14.89,15.72-15.31v-2.91l-15.81,14.25.65-62.14Z" transform="translate(-21.07 -17.75)"/>
    <line class="cls-3" x1="193.93" y1="729.47" x2="193.93" y2="271.45"/>
    <rect class="cls-4" x="176.05" y="193.95" width="35.56" height="77.5"/>
    <path class="cls-1" d="M170,19.75h.12l0,0h.05c3.69.92,8.64,7.61,13,13.52l2.07,2.78c5.92,7.9,8.89,11.86,28.82,57.7C233.6,138.57,237.88,198.56,238,200.26V661.19a12.29,12.29,0,0,0,1.16,5.67c.31.62,1,1.66,1.9,3.12,1.24,1.94,2.78,4.35,3.6,6a9.08,9.08,0,0,1,.93,4.06L245,747.69H95l-.58-67.62a9.22,9.22,0,0,1,.92-4.07c.82-1.66,2.36-4.06,3.59-6l-.84-.54L99,670c.92-1.44,1.58-2.48,1.89-3.1a12.29,12.29,0,0,0,1.16-5.67v-461c.12-1.71,4.54-62,23.88-106.44C145.81,48,148.78,44,154.7,36.09c.68-.9,1.35-1.81,2-2.72l0-.06c4.37-5.91,9.33-12.6,12.94-13.5l.23-.06H170m0-1a1.08,1.08,0,0,0-.32,0l-.18,0c-4,1-8.85,7.55-13.54,13.89l-2.06,2.77c-6,8-9,11.95-28.94,57.9-19.74,45.39-23.92,106.22-24,106.8v461a11.39,11.39,0,0,1-1,5.22c-.29.58-1,1.66-1.86,3-1.25,2-2.81,4.4-3.65,6.12a10,10,0,0,0-1,4.51L94,748.69H246l.59-68.62a10,10,0,0,0-1-4.51c-.84-1.72-2.4-4.16-3.66-6.12-.87-1.37-1.56-2.45-1.85-3a11.39,11.39,0,0,1-1.05-5.22v-461c0-.61-4.22-61.44-24-106.83-20-45.95-23-49.94-28.94-57.9L184,32.72c-4.69-6.34-9.54-12.9-13.58-13.9l-.11,0a1.9,1.9,0,0,0-.35,0Z" transform="translate(-21.07 -17.75)"/>
    <path class="cls-2" d="M170,19.25h.23l.08,0,0,0h0c3.83.95,8.62,7.43,13.26,13.7l2.06,2.77c6,7.93,8.93,11.91,28.88,57.8,19.52,44.89,23.8,104.94,23.92,106.63v461a11.81,11.81,0,0,0,1.11,5.45c.29.6,1,1.69,1.87,3.07,1.25,1.95,2.8,4.38,3.63,6.07a9.66,9.66,0,0,1,1,4.29l-.58,68.12h-151l-.58-68.12a9.66,9.66,0,0,1,1-4.29c.83-1.69,2.38-4.12,3.62-6.07.89-1.38,1.59-2.47,1.88-3.07a11.81,11.81,0,0,0,1.11-5.45v-461c.12-1.7,4.4-61.73,23.92-106.63,20-45.89,22.93-49.87,28.88-57.8L156.36,33c4.64-6.27,9.43-12.75,13.22-13.69l.2-.06.21,0m0-1a1.82,1.82,0,0,0-.42,0l-.2.06c-4.77,1.18-10.32,9.43-15.88,16.84-6,8-9,12-29,58s-24,107-24,107v461a10.87,10.87,0,0,1-1,5c-.69,1.38-4.08,6.24-5.51,9.15a10.55,10.55,0,0,0-1.08,4.74l.59,69.11h153l.59-69.11a10.55,10.55,0,0,0-1.08-4.74c-1.43-2.91-4.82-7.77-5.51-9.15a10.87,10.87,0,0,1-1-5v-461s-4-61-24-107-23-50-29-58c-5.56-7.41-11.11-15.66-15.88-16.84l-.18-.06a1.94,1.94,0,0,0-.44,0Z" transform="translate(-21.07 -17.75)"/>
    <path class="cls-1" d="M170.06,662.69h1.82c3.49,0,6.51.06,7.87,1.81,3.24,4.11,3.41,6.77,3.8,12.61.13,2,.27,4.15.57,6.84,1.07,9.82,6,56.33,6.6,61.6l.23,2.13h-39.9c2.19-20.46,5.93-55.42,6.83-63.73.29-2.67.44-4.87.57-6.84.39-5.84.56-8.5,3.8-12.61,1.25-1.6,4.49-1.82,7.81-1.82m0-1c-3.33,0-7,.17-8.6,2.2-3.42,4.35-3.62,7.3-4,13.17-.13,1.94-.27,4.13-.56,6.79-1,8.8-5.13,47.81-6.89,64.21a.62.62,0,0,0,.15.45.52.52,0,0,0,.41.18h40.88a.52.52,0,0,0,.41-.18.62.62,0,0,0,.15-.45l-.28-2.61c-1.39-13-5.63-52.61-6.61-61.6-.29-2.66-.43-4.86-.56-6.79-.39-5.87-.59-8.82-4-13.17-1.66-2.12-4.9-2.15-8.65-2.19h-1.83Z" transform="translate(-21.07 -17.75)"/>
    <path class="cls-2" d="M170.06,662.19h1.82c3.62,0,6.75.07,8.27,2,3.33,4.23,3.52,7.12,3.9,12.89.13,1.94.27,4.15.56,6.81,1.07,9.72,5.93,55.2,6.89,64.21,0,0,0,0-.06.08h-21l-19.9,0a.08.08,0,0,1,0-.06c1-9,5.82-54.49,6.89-64.21.29-2.66.43-4.87.56-6.81.38-5.77.57-8.66,3.9-12.89,1.39-1.77,4.77-2,8.21-2m0-1c-3.63,0-7.31.24-9,2.39-4.68,5.94-3.51,9.51-4.68,20.21-1.06,9.77-6,56.19-6.88,64.22a1.06,1.06,0,0,0,1.05,1.18h40.88a1.06,1.06,0,0,0,1.05-1.18c-.85-8-5.82-54.45-6.88-64.22-1.17-10.7,0-14.27-4.68-20.21-1.86-2.37-5.39-2.34-9.35-2.38Z" transform="translate(-21.07 -17.75)"/>
    <path class="cls-1" d="M170.2,676.68h1.55c2.93,0,5.47,0,6.58,1.44,2.72,3.4,2.87,5.61,3.19,10.47v0c.11,1.63.23,3.47.48,5.71.86,7.78,4.84,44.36,5.82,53.33H154.17c.64-5.84,4.91-45.12,5.82-53.33.25-2.26.38-4.12.49-5.76.32-4.86.47-7.07,3.19-10.47,1.16-1.45,4.65-1.45,6.53-1.45m0-1c-2.83,0-6,.14-7.31,1.82-2.91,3.65-3.08,6.11-3.41,11-.11,1.63-.23,3.48-.48,5.72-.92,8.21-5.16,47.25-5.89,54a.39.39,0,0,0,.09.31.44.44,0,0,0,.31.13h35a.44.44,0,0,0,.31-.13.39.39,0,0,0,.09-.31c-.78-7.27-5-45.88-5.89-54-.25-2.24-.37-4.09-.48-5.72-.33-4.92-.5-7.38-3.41-11-1.41-1.75-4.16-1.78-7.36-1.81Z" transform="translate(-21.07 -17.75)"/>
    <path class="cls-2" d="M170.2,676.18h1.55c3.07,0,5.71.06,7,1.63,2.82,3.52,3,5.93,3.3,10.75.11,1.63.24,3.49.49,5.73.9,8.12,5,46.05,5.88,53.89H153.61c.86-7.84,5-45.77,5.88-53.89.25-2.24.38-4.1.49-5.73.32-4.82.48-7.23,3.3-10.75,1.15-1.44,4-1.64,6.92-1.64m0-1c-3.11,0-6.26.21-7.7,2-4,5-3,8-4,17-.91,8.22-5.16,47.25-5.89,54a.9.9,0,0,0,.9,1h35a.9.9,0,0,0,.9-1c-.73-6.76-5-45.79-5.89-54-1-9,0-12-4-17-1.59-2-4.62-2-8-2Z" transform="translate(-21.07 -17.75)"/>
    <line class="cls-2" x1="218.43" y1="271.45" x2="79.43" y2="271.45"/>
    <line class="cls-2" x1="176.05" y1="259.78" x2="79.43" y2="259.78"/>
    <line class="cls-2" x1="217.46" y1="259.78" x2="211.6" y2="259.78"/>
    <line class="cls-2" x1="79.43" y1="193.95" x2="218.43" y2="193.95"/>
    <line class="cls-2" x1="88.25" y1="123.95" x2="209.62" y2="123.95"/>
    <line class="cls-2" x1="139.43" y1="10.45" x2="158.43" y2="10.45"/>
    <path class="cls-1" d="M93,700.79v1.58L54.71,755.6l-1.81,2.51,2.94-1,13.48-4.49.39-.13.18-.37.82-1.62,22.42-7.17L93,747,52.09,759.58l-.32.1-.19.27L38.52,778.11l-1.14,1.58h11a47.31,47.31,0,0,1-10.92,1,47.31,47.31,0,0,1-10.92-1h9.65l.3-.42L93,700.79m1-3.1-58.28,81H22s2,3,15.5,3,15.5-3,15.5-3H39.33l13.06-18.15L94,747.69l.17-5.72L70,749.69l-1,2-13.48,4.49L94,702.69v-5Z" transform="translate(-21.07 -17.75)"/>
    <path class="cls-1" d="M247,700.79l56.47,78.48.3.42h9.65a60.12,60.12,0,0,1-21.84,0h11l-1.14-1.58L288.42,760l-.19-.27-.32-.1L247,747l-.11-3.6,22.42,7.17.82,1.62.18.37.39.13,13.48,4.49,2.94,1-1.81-2.51L247,702.37v-1.58m-1-3.1v5l38.48,53.49L271,751.69l-1-2L245.83,742l.17,5.72,41.61,12.85,13.06,18.15H287s2,3,15.5,3,15.5-3,15.5-3H304.28l-58.28-81Z" transform="translate(-21.07 -17.75)"/>
    <path class="cls-1" d="M172.32,698.69l-.64,61.13,0,2.28,1.69-1.53,14.14-12.74v.24l-15.42,15-.3.3v.42l.06,14.89v1h10.09a46.6,46.6,0,0,1-10.67,1,46.6,46.6,0,0,1-10.67-1h10.07l0-1,.33-14.66v-.44l-.33-.31-16.23-15.15,0-.25,14.87,12.84L171,762.2l0-2.23-.82-61.28h2.14m1-1h-4.16L170,760l-16.26-14.06-.35,2.59L170,764l-.33,14.66H156s2,3,15.25,3,15.25-3,15.25-3H172.83l-.06-14.89,15.72-15.31v-2.91l-15.81,14.25.65-62.14Zm-2.08,84h0Z" transform="translate(-21.07 -17.75)"/>
    <line class="cls-2" x1="193.93" y1="729.47" x2="193.93" y2="271.45"/>
    <path class="cls-1" d="M231.67,212.69v75.5H198.11v-75.5h33.56m1-1H197.11v77.5h35.56v-77.5Z" transform="translate(-21.07 -17.75)"/>
    <circle class="cls-2" cx="149.13" cy="883.04" r="21.25"/>
    <circle class="cls-2" cx="109.74" cy="950.84" r="21.25"/>
    <circle class="cls-2" cx="188.15" cy="951.05" r="21.25"/>
    <polygon class="cls-5" points="159.87 836.65 159.04 836.65 152.27 817.04 150.6 817.04 150.6 799.59 149.14 799.59 147.67 799.59 147.67 817.04 146.01 817.04 139.23 836.65 138.4 836.65 132.45 856.26 136.23 856.26 147.67 819.4 147.67 856.26 149.14 856.26 150.6 856.26 150.6 819.4 162.04 856.26 165.82 856.26 159.87 836.65"/>
    <polygon class="cls-5" points="57.28 917.6 57.28 918.42 37.67 925.2 37.67 926.87 20.22 926.87 20.22 928.33 20.22 929.79 37.67 929.79 37.67 931.46 57.28 938.24 57.28 939.06 76.89 945.02 76.89 941.24 40.02 929.79 76.89 929.79 76.89 928.33 76.89 926.87 40.02 926.87 76.89 915.42 76.89 911.64 57.28 917.6"/>
    <circle class="cls-2" cx="148.81" cy="1057.02" r="15.5"/>
    <circle class="cls-2" cx="149.01" cy="928.31" r="68.24"/>
    <circle class="cls-2" cx="149.01" cy="928.31" r="4.95"/>
    <path class="cls-2" d="M191.65,881.27l0,0s-1.34-4.69-2.34-5.91a3.82,3.82,0,0,0-2.44-1.33H153.56a3.82,3.82,0,0,0-2.44,1.33c-1,1.22-2.33,5.91-2.33,5.91h0a68.19,68.19,0,0,1,42.86,0Z" transform="translate(-21.07 -17.75)"/>
    <path class="cls-2" d="M105.22,924.63l0,0s-4.69,1.33-5.91,2.33A3.82,3.82,0,0,0,98,929.39v33.32a3.82,3.82,0,0,0,1.34,2.45c1.22,1,5.91,2.33,5.91,2.33h0a68.28,68.28,0,0,1,0-42.86Z" transform="translate(-21.07 -17.75)"/>
    <path class="cls-2" d="M148.43,1010.84h0s1.33,4.69,2.33,5.92a3.82,3.82,0,0,0,2.44,1.33h33.33a3.82,3.82,0,0,0,2.44-1.33c1-1.23,2.34-5.92,2.34-5.92h0a68.35,68.35,0,0,1-42.85,0Z" transform="translate(-21.07 -17.75)"/>
    <path class="cls-2" d="M234.78,967.86l0,0s4.69-1.34,5.91-2.34a3.8,3.8,0,0,0,1.34-2.44V929.77a3.8,3.8,0,0,0-1.34-2.44c-1.22-1-5.91-2.33-5.91-2.33h0a68.28,68.28,0,0,1,0,42.86Z" transform="translate(-21.07 -17.75)"/>
    <polygon class="cls-5" points="240.59 939.4 240.59 938.58 260.2 931.8 260.2 930.13 277.65 930.13 277.65 928.67 277.65 927.2 260.2 927.2 260.2 925.54 240.59 918.76 240.59 917.94 220.98 911.98 220.98 915.76 257.84 927.2 220.98 927.2 220.98 928.67 220.98 930.13 257.84 930.13 220.98 941.58 220.98 945.35 240.59 939.4"/>
    <circle class="cls-2" cx="149.14" cy="799.59" r="15.5"/>
    <circle class="cls-2" cx="20.22" cy="928.33" r="15.5"/>
    <polygon class="cls-5" points="138.07 1019.96 138.9 1019.96 145.67 1039.58 147.34 1039.58 147.34 1057.02 148.81 1057.02 150.27 1057.02 150.27 1039.58 151.94 1039.58 158.71 1019.96 159.54 1019.96 165.49 1000.35 161.71 1000.35 150.27 1037.22 150.27 1000.35 148.81 1000.35 147.34 1000.35 147.34 1037.22 135.9 1000.35 132.12 1000.35 138.07 1019.96"/>
    <circle class="cls-2" cx="277.65" cy="928.67" r="15.5"/>
    <circle class="cls-2" cx="149.13" cy="946.71" r="10.67"/>
    <circle class="cls-2" cx="165.06" cy="919.57" r="10.67"/>
    <circle class="cls-2" cx="133.19" cy="919.57" r="10.67"/>
    <path class="cls-1" d="M186.68,875a2.88,2.88,0,0,1,1.73,1,13.27,13.27,0,0,1,1.5,3.5l.16.49.49.15A69,69,0,0,1,236,926l.15.49.49.16a12.37,12.37,0,0,1,3.25,1.42,2.87,2.87,0,0,1,1,1.73V963a2.86,2.86,0,0,1-1,1.73,13,13,0,0,1-3.51,1.51l-.48.16-.16.48a69,69,0,0,1-45.64,45.2l-.49.15-.16.48a12.71,12.71,0,0,1-1.46,3.38,2.83,2.83,0,0,1-1.73,1H153.09a2.89,2.89,0,0,1-1.73-1,12.81,12.81,0,0,1-1.51-3.53l-.16-.48-.49-.15a69.09,69.09,0,0,1-45.27-45.42l-.15-.49-.48-.16a13.2,13.2,0,0,1-3.53-1.51,2.85,2.85,0,0,1-1-1.73V929.45a2.89,2.89,0,0,1,1-1.73,12.45,12.45,0,0,1,3.53-1.51l.48-.17.15-.49A69,69,0,0,1,149.62,880l.49-.15.16-.49a12.66,12.66,0,0,1,1.47-3.4,2.86,2.86,0,0,1,1.72-1h33.22m.06-1H153.41a3.82,3.82,0,0,0-2.44,1.33,15.1,15.1,0,0,0-1.65,3.71A70.24,70.24,0,0,0,103,925.26a15.79,15.79,0,0,0-3.85,1.68,3.83,3.83,0,0,0-1.33,2.45v33.32a3.83,3.83,0,0,0,1.33,2.45,16.15,16.15,0,0,0,3.85,1.69,70.25,70.25,0,0,0,45.92,46.07,15.76,15.76,0,0,0,1.69,3.85,3.82,3.82,0,0,0,2.44,1.33h33.33a3.82,3.82,0,0,0,2.44-1.33,15,15,0,0,0,1.64-3.7,70.24,70.24,0,0,0,46.3-45.85,15.13,15.13,0,0,0,3.82-1.68,3.82,3.82,0,0,0,1.33-2.44V929.77a3.82,3.82,0,0,0-1.33-2.44,14.22,14.22,0,0,0-3.56-1.59,70.22,70.22,0,0,0-46.14-46.58,15.71,15.71,0,0,0-1.68-3.82,3.82,3.82,0,0,0-2.44-1.33Z" transform="translate(-21.07 -17.75)"/>
    <path class="cls-1" d="M105.81,280.22c.28.13,1,1.28,1,3.33s-.72,3.25-1,3.34c-.27-.09-1-1.24-1-3.34s.69-3.2,1-3.33m0-1c-1.09,0-2,1.94-2,4.33s.89,4.33,2,4.33,2-1.94,2-4.33-.89-4.33-2-4.33Z" transform="translate(-21.07 -17.75)"/>
    <path class="cls-1" d="M112.22,280.22c.36,0,1.22,1.17,1.22,3.33s-.86,3.33-1.22,3.33-1.22-1.16-1.22-3.33.87-3.33,1.22-3.33m0-1c-1.23,0-2.22,1.94-2.22,4.33s1,4.33,2.22,4.33,2.22-1.94,2.22-4.33-1-4.33-2.22-4.33Z" transform="translate(-21.07 -17.75)"/>
    <path class="cls-1" d="M119.75,280.22c.65,0,1.58,1.3,1.58,3.33s-.93,3.33-1.58,3.33-1.58-1.29-1.58-3.33.93-3.33,1.58-3.33m0-1c-1.43,0-2.58,1.94-2.58,4.33s1.15,4.33,2.58,4.33,2.58-1.94,2.58-4.33-1.15-4.33-2.58-4.33Z" transform="translate(-21.07 -17.75)"/>
    <path class="cls-1" d="M128.25,280.22c.91,0,1.92,1.37,1.92,3.33s-1,3.33-1.92,3.33-1.92-1.36-1.92-3.33,1-3.33,1.92-3.33m0-1c-1.61,0-2.92,1.94-2.92,4.33s1.31,4.33,2.92,4.33,2.92-1.94,2.92-4.33-1.31-4.33-2.92-4.33Z" transform="translate(-21.07 -17.75)"/>
    <path class="cls-1" d="M137.42,280.22c.9,0,1.91,1.37,1.91,3.33s-1,3.33-1.91,3.33-1.92-1.36-1.92-3.33,1-3.33,1.92-3.33m0-1c-1.61,0-2.92,1.94-2.92,4.33s1.31,4.33,2.92,4.33,2.91-1.94,2.91-4.33-1.3-4.33-2.91-4.33Z" transform="translate(-21.07 -17.75)"/>
    <path class="cls-1" d="M146.89,280.22c1.2,0,2.22,1.52,2.22,3.33s-1,3.33-2.22,3.33-2.22-1.52-2.22-3.33,1-3.33,2.22-3.33m0-1c-1.78,0-3.22,1.94-3.22,4.33s1.44,4.33,3.22,4.33,3.22-1.94,3.22-4.33-1.44-4.33-3.22-4.33Z" transform="translate(-21.07 -17.75)"/>
    <path class="cls-1" d="M157,280.22c1.19,0,2.19,1.52,2.19,3.33s-1,3.33-2.19,3.33-2.2-1.52-2.2-3.33,1-3.33,2.2-3.33m0-1c-1.77,0-3.2,1.94-3.2,4.33s1.43,4.33,3.2,4.33,3.19-1.94,3.19-4.33-1.43-4.33-3.19-4.33Z" transform="translate(-21.07 -17.75)"/>
    <path class="cls-1" d="M167,280.22c1.19,0,2.19,1.52,2.19,3.33s-1,3.33-2.19,3.33-2.2-1.52-2.2-3.33,1-3.33,2.2-3.33m0-1c-1.77,0-3.2,1.94-3.2,4.33s1.43,4.33,3.2,4.33,3.19-1.94,3.19-4.33-1.43-4.33-3.19-4.33Z" transform="translate(-21.07 -17.75)"/>
    <path class="cls-1" d="M177,280.22c1.19,0,2.19,1.52,2.19,3.33s-1,3.33-2.19,3.33-2.2-1.52-2.2-3.33,1-3.33,2.2-3.33m0-1c-1.77,0-3.2,1.94-3.2,4.33s1.43,4.33,3.2,4.33,3.19-1.94,3.19-4.33-1.43-4.33-3.19-4.33Z" transform="translate(-21.07 -17.75)"/>
    <path class="cls-1" d="M187,280.22c1.19,0,2.19,1.52,2.19,3.33s-1,3.33-2.19,3.33-2.2-1.52-2.2-3.33,1-3.33,2.2-3.33m0-1c-1.77,0-3.2,1.94-3.2,4.33s1.43,4.33,3.2,4.33,3.19-1.94,3.19-4.33-1.43-4.33-3.19-4.33Z" transform="translate(-21.07 -17.75)"/>
    <path class="cls-1" d="M237.22,280.34a8,8,0,0,1,0,6.42,8.14,8.14,0,0,1,0-6.42m0-1.12c-.92,0-1.66,1.94-1.66,4.33s.74,4.33,1.66,4.33,1.67-1.94,1.67-4.33-.75-4.33-1.67-4.33Z" transform="translate(-21.07 -17.75)"/>
    <rect class="cls-2" x="179.14" y="173.7" width="6.35" height="11.11" rx="1.25"/>
    <rect class="cls-2" x="188.07" y="173.7" width="6.35" height="11.11" rx="1.25"/>
    <rect class="cls-2" x="197" y="173.7" width="5.39" height="11.11" rx="1.25"/>
    <rect class="cls-2" x="204.83" y="173.7" width="5.08" height="11.11" rx="1.25"/>
</svg>